<mxfile host="app.diagrams.net" agent="Mozilla/5.0 (Windows NT 10.0; Win64; x64) AppleWebKit/537.36 (KHTML, like Gecko) Chrome/131.0.0.0 Safari/537.36" version="24.8.7">
  <diagram name="PÃ¡gina-1" id="LN4YgTFYYMjVuMI7UaT1">
    <mxGraphModel dx="874" dy="460" grid="1" gridSize="10" guides="1" tooltips="1" connect="1" arrows="1" fold="1" page="1" pageScale="1" pageWidth="827" pageHeight="1169" math="0" shadow="0">
      <root>
        <mxCell id="0" />
        <mxCell id="1" parent="0" />
        <mxCell id="dutNidi9OQs2mMiUSZ_w-6" style="edgeStyle=orthogonalEdgeStyle;rounded=0;orthogonalLoop=1;jettySize=auto;html=1;exitX=1;exitY=1;exitDx=0;exitDy=0;entryX=0;entryY=0.25;entryDx=0;entryDy=0;" edge="1" parent="1" source="dutNidi9OQs2mMiUSZ_w-1" target="dutNidi9OQs2mMiUSZ_w-3">
          <mxGeometry relative="1" as="geometry" />
        </mxCell>
        <mxCell id="dutNidi9OQs2mMiUSZ_w-1" value="&amp;nbsp;API Gateway&amp;nbsp;" style="rounded=1;whiteSpace=wrap;html=1;" vertex="1" parent="1">
          <mxGeometry x="350" y="210" width="120" height="60" as="geometry" />
        </mxCell>
        <mxCell id="dutNidi9OQs2mMiUSZ_w-8" style="edgeStyle=orthogonalEdgeStyle;rounded=0;orthogonalLoop=1;jettySize=auto;html=1;entryX=0;entryY=0.75;entryDx=0;entryDy=0;" edge="1" parent="1" source="dutNidi9OQs2mMiUSZ_w-2" target="dutNidi9OQs2mMiUSZ_w-4">
          <mxGeometry relative="1" as="geometry" />
        </mxCell>
        <mxCell id="dutNidi9OQs2mMiUSZ_w-2" value="&lt;span class=&quot;hljs-keyword&quot;&gt;User&lt;/span&gt; Service&lt;div&gt;(Register,CVU, Alias)&lt;/div&gt;" style="rounded=1;whiteSpace=wrap;html=1;" vertex="1" parent="1">
          <mxGeometry x="200" y="290" width="120" height="60" as="geometry" />
        </mxCell>
        <mxCell id="dutNidi9OQs2mMiUSZ_w-9" style="edgeStyle=orthogonalEdgeStyle;rounded=0;orthogonalLoop=1;jettySize=auto;html=1;entryX=1;entryY=0.75;entryDx=0;entryDy=0;" edge="1" parent="1" source="dutNidi9OQs2mMiUSZ_w-3" target="dutNidi9OQs2mMiUSZ_w-4">
          <mxGeometry relative="1" as="geometry" />
        </mxCell>
        <mxCell id="dutNidi9OQs2mMiUSZ_w-3" value="Auth Service&lt;div&gt;(Login, Logout, JWT)&lt;/div&gt;" style="rounded=1;whiteSpace=wrap;html=1;" vertex="1" parent="1">
          <mxGeometry x="520" y="290" width="120" height="60" as="geometry" />
        </mxCell>
        <mxCell id="dutNidi9OQs2mMiUSZ_w-4" value="&lt;div&gt;Eureka&lt;/div&gt;(Service Discovery)" style="rounded=1;whiteSpace=wrap;html=1;" vertex="1" parent="1">
          <mxGeometry x="360" y="460" width="120" height="60" as="geometry" />
        </mxCell>
        <mxCell id="dutNidi9OQs2mMiUSZ_w-5" style="edgeStyle=orthogonalEdgeStyle;rounded=0;orthogonalLoop=1;jettySize=auto;html=1;exitX=0;exitY=1;exitDx=0;exitDy=0;entryX=0.992;entryY=0.117;entryDx=0;entryDy=0;entryPerimeter=0;" edge="1" parent="1" source="dutNidi9OQs2mMiUSZ_w-1" target="dutNidi9OQs2mMiUSZ_w-2">
          <mxGeometry relative="1" as="geometry" />
        </mxCell>
      </root>
    </mxGraphModel>
  </diagram>
</mxfile>
